<mxfile host="Electron" agent="Mozilla/5.0 (Windows NT 10.0; Win64; x64) AppleWebKit/537.36 (KHTML, like Gecko) draw.io/25.0.2 Chrome/128.0.6613.186 Electron/32.2.5 Safari/537.36" version="25.0.2">
  <diagram name="Trang-1" id="pL_nxTRzSTX7qOrieBRr">
    <mxGraphModel dx="1036" dy="606" grid="1" gridSize="10" guides="1" tooltips="1" connect="1" arrows="1" fold="1" page="1" pageScale="1" pageWidth="850" pageHeight="1100" math="0" shadow="0">
      <root>
        <mxCell id="0" />
        <mxCell id="1" parent="0" />
        <mxCell id="CFTnsSe6Z_SeF7mY13qg-1" value="" style="ellipse;whiteSpace=wrap;html=1;" vertex="1" parent="1">
          <mxGeometry x="365" y="30" width="120" height="80" as="geometry" />
        </mxCell>
        <mxCell id="CFTnsSe6Z_SeF7mY13qg-2" value="" style="shape=parallelogram;perimeter=parallelogramPerimeter;whiteSpace=wrap;html=1;fixedSize=1;" vertex="1" parent="1">
          <mxGeometry x="365" y="220" width="120" height="60" as="geometry" />
        </mxCell>
        <mxCell id="CFTnsSe6Z_SeF7mY13qg-3" value="" style="rhombus;whiteSpace=wrap;html=1;" vertex="1" parent="1">
          <mxGeometry x="385" y="300" width="80" height="80" as="geometry" />
        </mxCell>
        <mxCell id="CFTnsSe6Z_SeF7mY13qg-5" value="" style="rhombus;whiteSpace=wrap;html=1;" vertex="1" parent="1">
          <mxGeometry x="385" y="480" width="80" height="80" as="geometry" />
        </mxCell>
        <mxCell id="CFTnsSe6Z_SeF7mY13qg-6" value="" style="rhombus;whiteSpace=wrap;html=1;" vertex="1" parent="1">
          <mxGeometry x="385" y="590" width="80" height="80" as="geometry" />
        </mxCell>
        <mxCell id="CFTnsSe6Z_SeF7mY13qg-7" value="Start" style="text;html=1;align=center;verticalAlign=middle;whiteSpace=wrap;rounded=0;" vertex="1" parent="1">
          <mxGeometry x="395" y="55" width="60" height="30" as="geometry" />
        </mxCell>
        <mxCell id="CFTnsSe6Z_SeF7mY13qg-8" value="Input:&amp;nbsp;&lt;div&gt;n&lt;/div&gt;&lt;div&gt;&lt;br&gt;&lt;/div&gt;" style="text;html=1;align=center;verticalAlign=middle;whiteSpace=wrap;rounded=0;" vertex="1" parent="1">
          <mxGeometry x="395" y="235" width="60" height="30" as="geometry" />
        </mxCell>
        <mxCell id="CFTnsSe6Z_SeF7mY13qg-9" value="count&amp;lt;n" style="text;html=1;align=center;verticalAlign=middle;whiteSpace=wrap;rounded=0;" vertex="1" parent="1">
          <mxGeometry x="395" y="325" width="60" height="30" as="geometry" />
        </mxCell>
        <mxCell id="CFTnsSe6Z_SeF7mY13qg-11" value="" style="rounded=0;whiteSpace=wrap;html=1;" vertex="1" parent="1">
          <mxGeometry x="365" y="130" width="120" height="60" as="geometry" />
        </mxCell>
        <mxCell id="CFTnsSe6Z_SeF7mY13qg-12" value="num=2,count=0,&lt;div&gt;prime&lt;/div&gt;" style="text;html=1;align=center;verticalAlign=middle;whiteSpace=wrap;rounded=0;" vertex="1" parent="1">
          <mxGeometry x="395" y="145" width="60" height="30" as="geometry" />
        </mxCell>
        <mxCell id="CFTnsSe6Z_SeF7mY13qg-13" value="" style="rounded=0;whiteSpace=wrap;html=1;" vertex="1" parent="1">
          <mxGeometry x="365" y="400" width="120" height="60" as="geometry" />
        </mxCell>
        <mxCell id="CFTnsSe6Z_SeF7mY13qg-14" value="prime=1" style="text;html=1;align=center;verticalAlign=middle;whiteSpace=wrap;rounded=0;" vertex="1" parent="1">
          <mxGeometry x="395" y="415" width="60" height="30" as="geometry" />
        </mxCell>
        <mxCell id="CFTnsSe6Z_SeF7mY13qg-15" value="i&amp;lt;sqrt(num)" style="text;html=1;align=center;verticalAlign=middle;whiteSpace=wrap;rounded=0;" vertex="1" parent="1">
          <mxGeometry x="395" y="505" width="60" height="30" as="geometry" />
        </mxCell>
        <mxCell id="CFTnsSe6Z_SeF7mY13qg-16" value="num%i==0" style="text;html=1;align=center;verticalAlign=middle;whiteSpace=wrap;rounded=0;" vertex="1" parent="1">
          <mxGeometry x="395" y="615" width="60" height="30" as="geometry" />
        </mxCell>
        <mxCell id="CFTnsSe6Z_SeF7mY13qg-17" value="" style="rounded=0;whiteSpace=wrap;html=1;" vertex="1" parent="1">
          <mxGeometry x="365" y="700" width="120" height="60" as="geometry" />
        </mxCell>
        <mxCell id="CFTnsSe6Z_SeF7mY13qg-18" value="prime=0," style="text;html=1;align=center;verticalAlign=middle;whiteSpace=wrap;rounded=0;" vertex="1" parent="1">
          <mxGeometry x="395" y="715" width="60" height="30" as="geometry" />
        </mxCell>
        <mxCell id="CFTnsSe6Z_SeF7mY13qg-21" value="" style="rounded=0;whiteSpace=wrap;html=1;" vertex="1" parent="1">
          <mxGeometry x="550" y="600" width="120" height="60" as="geometry" />
        </mxCell>
        <mxCell id="CFTnsSe6Z_SeF7mY13qg-22" value="i++" style="text;html=1;align=center;verticalAlign=middle;whiteSpace=wrap;rounded=0;" vertex="1" parent="1">
          <mxGeometry x="580" y="615" width="60" height="30" as="geometry" />
        </mxCell>
        <mxCell id="CFTnsSe6Z_SeF7mY13qg-24" value="" style="endArrow=classic;html=1;rounded=0;exitX=0.5;exitY=1;exitDx=0;exitDy=0;entryX=0.5;entryY=0;entryDx=0;entryDy=0;" edge="1" parent="1" source="CFTnsSe6Z_SeF7mY13qg-1" target="CFTnsSe6Z_SeF7mY13qg-11">
          <mxGeometry width="50" height="50" relative="1" as="geometry">
            <mxPoint x="300" y="160" as="sourcePoint" />
            <mxPoint x="350" y="110" as="targetPoint" />
          </mxGeometry>
        </mxCell>
        <mxCell id="CFTnsSe6Z_SeF7mY13qg-25" value="" style="endArrow=none;html=1;rounded=0;exitX=1;exitY=0.5;exitDx=0;exitDy=0;" edge="1" parent="1" source="CFTnsSe6Z_SeF7mY13qg-17">
          <mxGeometry width="50" height="50" relative="1" as="geometry">
            <mxPoint x="570" y="760" as="sourcePoint" />
            <mxPoint x="620" y="730" as="targetPoint" />
          </mxGeometry>
        </mxCell>
        <mxCell id="CFTnsSe6Z_SeF7mY13qg-26" value="" style="rhombus;whiteSpace=wrap;html=1;" vertex="1" parent="1">
          <mxGeometry x="200" y="590" width="80" height="80" as="geometry" />
        </mxCell>
        <mxCell id="CFTnsSe6Z_SeF7mY13qg-27" value="prime==1" style="text;html=1;align=center;verticalAlign=middle;whiteSpace=wrap;rounded=0;" vertex="1" parent="1">
          <mxGeometry x="210" y="615" width="60" height="30" as="geometry" />
        </mxCell>
        <mxCell id="CFTnsSe6Z_SeF7mY13qg-28" value="" style="shape=parallelogram;perimeter=parallelogramPerimeter;whiteSpace=wrap;html=1;fixedSize=1;" vertex="1" parent="1">
          <mxGeometry x="190" y="800" width="120" height="60" as="geometry" />
        </mxCell>
        <mxCell id="CFTnsSe6Z_SeF7mY13qg-29" value="output:num" style="text;html=1;align=center;verticalAlign=middle;whiteSpace=wrap;rounded=0;" vertex="1" parent="1">
          <mxGeometry x="220" y="815" width="60" height="30" as="geometry" />
        </mxCell>
        <mxCell id="CFTnsSe6Z_SeF7mY13qg-30" value="" style="rounded=0;whiteSpace=wrap;html=1;" vertex="1" parent="1">
          <mxGeometry x="40" y="600" width="120" height="60" as="geometry" />
        </mxCell>
        <mxCell id="CFTnsSe6Z_SeF7mY13qg-31" value="num++" style="text;html=1;align=center;verticalAlign=middle;whiteSpace=wrap;rounded=0;" vertex="1" parent="1">
          <mxGeometry x="70" y="615" width="60" height="30" as="geometry" />
        </mxCell>
        <mxCell id="CFTnsSe6Z_SeF7mY13qg-32" value="" style="endArrow=classic;html=1;rounded=0;exitX=0.5;exitY=1;exitDx=0;exitDy=0;" edge="1" parent="1" source="CFTnsSe6Z_SeF7mY13qg-11" target="CFTnsSe6Z_SeF7mY13qg-2">
          <mxGeometry width="50" height="50" relative="1" as="geometry">
            <mxPoint x="250" y="220" as="sourcePoint" />
            <mxPoint x="300" y="170" as="targetPoint" />
          </mxGeometry>
        </mxCell>
        <mxCell id="CFTnsSe6Z_SeF7mY13qg-35" value="" style="endArrow=classic;html=1;rounded=0;exitX=0.5;exitY=1;exitDx=0;exitDy=0;entryX=0.5;entryY=0;entryDx=0;entryDy=0;" edge="1" parent="1" source="CFTnsSe6Z_SeF7mY13qg-2" target="CFTnsSe6Z_SeF7mY13qg-3">
          <mxGeometry width="50" height="50" relative="1" as="geometry">
            <mxPoint x="300" y="350" as="sourcePoint" />
            <mxPoint x="350" y="300" as="targetPoint" />
          </mxGeometry>
        </mxCell>
        <mxCell id="CFTnsSe6Z_SeF7mY13qg-36" value="" style="endArrow=classic;html=1;rounded=0;exitX=0.5;exitY=1;exitDx=0;exitDy=0;entryX=0.5;entryY=0;entryDx=0;entryDy=0;" edge="1" parent="1" source="CFTnsSe6Z_SeF7mY13qg-3" target="CFTnsSe6Z_SeF7mY13qg-13">
          <mxGeometry width="50" height="50" relative="1" as="geometry">
            <mxPoint x="280" y="410" as="sourcePoint" />
            <mxPoint x="330" y="360" as="targetPoint" />
          </mxGeometry>
        </mxCell>
        <mxCell id="CFTnsSe6Z_SeF7mY13qg-37" value="True" style="text;html=1;align=center;verticalAlign=middle;whiteSpace=wrap;rounded=0;" vertex="1" parent="1">
          <mxGeometry x="425" y="370" width="60" height="30" as="geometry" />
        </mxCell>
        <mxCell id="CFTnsSe6Z_SeF7mY13qg-38" value="" style="endArrow=classic;html=1;rounded=0;exitX=0.5;exitY=1;exitDx=0;exitDy=0;entryX=0.5;entryY=0;entryDx=0;entryDy=0;" edge="1" parent="1" source="CFTnsSe6Z_SeF7mY13qg-13" target="CFTnsSe6Z_SeF7mY13qg-5">
          <mxGeometry width="50" height="50" relative="1" as="geometry">
            <mxPoint x="230" y="510" as="sourcePoint" />
            <mxPoint x="280" y="460" as="targetPoint" />
          </mxGeometry>
        </mxCell>
        <mxCell id="CFTnsSe6Z_SeF7mY13qg-39" value="" style="endArrow=classic;html=1;rounded=0;exitX=0.5;exitY=1;exitDx=0;exitDy=0;entryX=0.5;entryY=0;entryDx=0;entryDy=0;" edge="1" parent="1" source="CFTnsSe6Z_SeF7mY13qg-5" target="CFTnsSe6Z_SeF7mY13qg-6">
          <mxGeometry width="50" height="50" relative="1" as="geometry">
            <mxPoint x="320" y="610" as="sourcePoint" />
            <mxPoint x="370" y="560" as="targetPoint" />
          </mxGeometry>
        </mxCell>
        <mxCell id="CFTnsSe6Z_SeF7mY13qg-40" value="True" style="text;html=1;align=center;verticalAlign=middle;whiteSpace=wrap;rounded=0;" vertex="1" parent="1">
          <mxGeometry x="425" y="560" width="60" height="30" as="geometry" />
        </mxCell>
        <mxCell id="CFTnsSe6Z_SeF7mY13qg-41" value="" style="endArrow=classic;html=1;rounded=0;entryX=0.583;entryY=1.01;entryDx=0;entryDy=0;entryPerimeter=0;" edge="1" parent="1" target="CFTnsSe6Z_SeF7mY13qg-21">
          <mxGeometry width="50" height="50" relative="1" as="geometry">
            <mxPoint x="620" y="730" as="sourcePoint" />
            <mxPoint x="750" y="700" as="targetPoint" />
          </mxGeometry>
        </mxCell>
        <mxCell id="CFTnsSe6Z_SeF7mY13qg-42" value="" style="endArrow=classic;html=1;rounded=0;exitX=0.5;exitY=1;exitDx=0;exitDy=0;" edge="1" parent="1" source="CFTnsSe6Z_SeF7mY13qg-6" target="CFTnsSe6Z_SeF7mY13qg-17">
          <mxGeometry width="50" height="50" relative="1" as="geometry">
            <mxPoint x="490" y="640" as="sourcePoint" />
            <mxPoint x="540" y="590" as="targetPoint" />
          </mxGeometry>
        </mxCell>
        <mxCell id="CFTnsSe6Z_SeF7mY13qg-43" value="" style="endArrow=classic;html=1;rounded=0;exitX=0;exitY=0.5;exitDx=0;exitDy=0;entryX=1;entryY=0.5;entryDx=0;entryDy=0;" edge="1" parent="1" source="CFTnsSe6Z_SeF7mY13qg-21" target="CFTnsSe6Z_SeF7mY13qg-6">
          <mxGeometry width="50" height="50" relative="1" as="geometry">
            <mxPoint x="500" y="610" as="sourcePoint" />
            <mxPoint x="550" y="560" as="targetPoint" />
          </mxGeometry>
        </mxCell>
        <mxCell id="CFTnsSe6Z_SeF7mY13qg-44" value="True" style="text;html=1;align=center;verticalAlign=middle;whiteSpace=wrap;rounded=0;" vertex="1" parent="1">
          <mxGeometry x="420" y="660" width="60" height="30" as="geometry" />
        </mxCell>
        <mxCell id="CFTnsSe6Z_SeF7mY13qg-45" value="" style="endArrow=classic;html=1;rounded=0;exitX=0;exitY=0.5;exitDx=0;exitDy=0;entryX=1;entryY=0.5;entryDx=0;entryDy=0;" edge="1" parent="1" source="CFTnsSe6Z_SeF7mY13qg-6" target="CFTnsSe6Z_SeF7mY13qg-26">
          <mxGeometry width="50" height="50" relative="1" as="geometry">
            <mxPoint x="300" y="620" as="sourcePoint" />
            <mxPoint x="350" y="570" as="targetPoint" />
          </mxGeometry>
        </mxCell>
        <mxCell id="CFTnsSe6Z_SeF7mY13qg-46" value="" style="endArrow=classic;html=1;rounded=0;exitX=0.5;exitY=1;exitDx=0;exitDy=0;" edge="1" parent="1" source="CFTnsSe6Z_SeF7mY13qg-26">
          <mxGeometry width="50" height="50" relative="1" as="geometry">
            <mxPoint x="100" y="740" as="sourcePoint" />
            <mxPoint x="240" y="710" as="targetPoint" />
          </mxGeometry>
        </mxCell>
        <mxCell id="CFTnsSe6Z_SeF7mY13qg-47" value="" style="endArrow=none;html=1;rounded=0;entryX=0;entryY=0.5;entryDx=0;entryDy=0;" edge="1" parent="1" target="CFTnsSe6Z_SeF7mY13qg-28">
          <mxGeometry width="50" height="50" relative="1" as="geometry">
            <mxPoint x="90" y="830" as="sourcePoint" />
            <mxPoint x="140" y="700" as="targetPoint" />
          </mxGeometry>
        </mxCell>
        <mxCell id="CFTnsSe6Z_SeF7mY13qg-48" value="" style="endArrow=classic;html=1;rounded=0;entryX=0.44;entryY=1.05;entryDx=0;entryDy=0;entryPerimeter=0;" edge="1" parent="1" target="CFTnsSe6Z_SeF7mY13qg-30">
          <mxGeometry width="50" height="50" relative="1" as="geometry">
            <mxPoint x="93" y="830" as="sourcePoint" />
            <mxPoint x="90" y="690" as="targetPoint" />
          </mxGeometry>
        </mxCell>
        <mxCell id="CFTnsSe6Z_SeF7mY13qg-49" value="False" style="text;html=1;align=center;verticalAlign=middle;whiteSpace=wrap;rounded=0;" vertex="1" parent="1">
          <mxGeometry x="335" y="600" width="60" height="30" as="geometry" />
        </mxCell>
        <mxCell id="CFTnsSe6Z_SeF7mY13qg-50" value="True" style="text;html=1;align=center;verticalAlign=middle;whiteSpace=wrap;rounded=0;" vertex="1" parent="1">
          <mxGeometry x="230" y="660" width="60" height="30" as="geometry" />
        </mxCell>
        <mxCell id="CFTnsSe6Z_SeF7mY13qg-51" value="" style="endArrow=classic;html=1;rounded=0;exitX=0;exitY=0.5;exitDx=0;exitDy=0;entryX=1;entryY=0.5;entryDx=0;entryDy=0;" edge="1" parent="1" source="CFTnsSe6Z_SeF7mY13qg-26" target="CFTnsSe6Z_SeF7mY13qg-30">
          <mxGeometry width="50" height="50" relative="1" as="geometry">
            <mxPoint x="160" y="600" as="sourcePoint" />
            <mxPoint x="210" y="550" as="targetPoint" />
          </mxGeometry>
        </mxCell>
        <mxCell id="CFTnsSe6Z_SeF7mY13qg-52" value="False" style="text;html=1;align=center;verticalAlign=middle;whiteSpace=wrap;rounded=0;" vertex="1" parent="1">
          <mxGeometry x="160" y="600" width="60" height="30" as="geometry" />
        </mxCell>
        <mxCell id="CFTnsSe6Z_SeF7mY13qg-53" value="" style="endArrow=none;html=1;rounded=0;exitX=0.433;exitY=0.01;exitDx=0;exitDy=0;exitPerimeter=0;" edge="1" parent="1" source="CFTnsSe6Z_SeF7mY13qg-30">
          <mxGeometry width="50" height="50" relative="1" as="geometry">
            <mxPoint x="150" y="370" as="sourcePoint" />
            <mxPoint x="90" y="340" as="targetPoint" />
          </mxGeometry>
        </mxCell>
        <mxCell id="CFTnsSe6Z_SeF7mY13qg-54" value="" style="endArrow=classic;html=1;rounded=0;entryX=0;entryY=0.5;entryDx=0;entryDy=0;" edge="1" parent="1" target="CFTnsSe6Z_SeF7mY13qg-3">
          <mxGeometry width="50" height="50" relative="1" as="geometry">
            <mxPoint x="90" y="340" as="sourcePoint" />
            <mxPoint x="260" y="320" as="targetPoint" />
          </mxGeometry>
        </mxCell>
        <mxCell id="CFTnsSe6Z_SeF7mY13qg-55" value="" style="rounded=0;whiteSpace=wrap;html=1;" vertex="1" parent="1">
          <mxGeometry x="180" y="715" width="120" height="60" as="geometry" />
        </mxCell>
        <mxCell id="CFTnsSe6Z_SeF7mY13qg-57" value="count++" style="text;html=1;align=center;verticalAlign=middle;whiteSpace=wrap;rounded=0;" vertex="1" parent="1">
          <mxGeometry x="210" y="730" width="60" height="30" as="geometry" />
        </mxCell>
        <mxCell id="CFTnsSe6Z_SeF7mY13qg-58" value="" style="endArrow=classic;html=1;rounded=0;exitX=0.567;exitY=1.013;exitDx=0;exitDy=0;entryX=0.5;entryY=0;entryDx=0;entryDy=0;exitPerimeter=0;" edge="1" parent="1" source="CFTnsSe6Z_SeF7mY13qg-55" target="CFTnsSe6Z_SeF7mY13qg-28">
          <mxGeometry width="50" height="50" relative="1" as="geometry">
            <mxPoint x="90" y="900" as="sourcePoint" />
            <mxPoint x="140" y="850" as="targetPoint" />
          </mxGeometry>
        </mxCell>
        <mxCell id="CFTnsSe6Z_SeF7mY13qg-59" value="" style="ellipse;whiteSpace=wrap;html=1;" vertex="1" parent="1">
          <mxGeometry x="365" y="890" width="120" height="80" as="geometry" />
        </mxCell>
        <mxCell id="CFTnsSe6Z_SeF7mY13qg-60" value="End" style="text;html=1;align=center;verticalAlign=middle;whiteSpace=wrap;rounded=0;" vertex="1" parent="1">
          <mxGeometry x="395" y="915" width="60" height="30" as="geometry" />
        </mxCell>
        <mxCell id="CFTnsSe6Z_SeF7mY13qg-61" value="" style="endArrow=none;html=1;rounded=0;exitX=1;exitY=0.5;exitDx=0;exitDy=0;" edge="1" parent="1" source="CFTnsSe6Z_SeF7mY13qg-3">
          <mxGeometry width="50" height="50" relative="1" as="geometry">
            <mxPoint x="470" y="340" as="sourcePoint" />
            <mxPoint x="760" y="340" as="targetPoint" />
          </mxGeometry>
        </mxCell>
        <mxCell id="CFTnsSe6Z_SeF7mY13qg-62" value="" style="endArrow=none;html=1;rounded=0;" edge="1" parent="1">
          <mxGeometry width="50" height="50" relative="1" as="geometry">
            <mxPoint x="760" y="930" as="sourcePoint" />
            <mxPoint x="760" y="340" as="targetPoint" />
          </mxGeometry>
        </mxCell>
        <mxCell id="CFTnsSe6Z_SeF7mY13qg-63" value="" style="endArrow=classic;html=1;rounded=0;entryX=1;entryY=0.5;entryDx=0;entryDy=0;" edge="1" parent="1" target="CFTnsSe6Z_SeF7mY13qg-59">
          <mxGeometry width="50" height="50" relative="1" as="geometry">
            <mxPoint x="760" y="930" as="sourcePoint" />
            <mxPoint x="720" y="890" as="targetPoint" />
          </mxGeometry>
        </mxCell>
        <mxCell id="CFTnsSe6Z_SeF7mY13qg-64" value="Fasle" style="text;html=1;align=center;verticalAlign=middle;whiteSpace=wrap;rounded=0;" vertex="1" parent="1">
          <mxGeometry x="465" y="310" width="60" height="30" as="geometry" />
        </mxCell>
      </root>
    </mxGraphModel>
  </diagram>
</mxfile>
